<?xml version="1.0" encoding="utf-8"?>
<!-- Generator: Adobe Illustrator 26.3.1, SVG Export Plug-In . SVG Version: 6.00 Build 0)  -->
<svg version="1.1" xmlns="http://www.w3.org/2000/svg" xmlns:xlink="http://www.w3.org/1999/xlink" x="0px" y="0px"
	 viewBox="0 0 512 512" style="enable-background:new 0 0 512 512;" xml:space="preserve">
<style type="text/css">
	.st0{fill:#FA6149;}
</style>
<g id="BG">
</g>
<g id="Layer_3">
	<path class="st0" d="M442.4,244c4.6-10.3,6.3-21,4.2-27.9s-4.5-10.3-3.3-15.6s20-10.8,27.9-13c12.8-3.5,24.1-6.1,34.1-6.8
		c4.7-0.3,6.1,2.3,3,4.6c-4.8,3.7-15.3,11.9-26.8,19.5C464.1,216.4,467.4,231.6,442.4,244z M423.8,226.8
		c-1.3,10.5-13.9,31.7-13.9,31.7s-0.9-3.6-1.5-5.6s-2.1-2.4-2.1-2.4s-4.8,18.8-10.7,23.4c-13,10.1-21.3,6-34.2,34.3
		c-2.7,5.9-0.4,18.5-2.4,21.2c1,3.1,2,8.7,0.1,16.2c-6.4-2-18.5-3.1-18.5-3.1s9.2,4.5,15,7.5c-0.6,3.1-9.2,21.5-11.4,23.4
		c-9.7-3.6-21.5-5.9-21.5-5.9s8.4,5.3,17.6,10.5c-1.4,3.5-12.9,17.5-15.7,19c-8.1-7.1-19-11-19-11s5.8,6,16.2,15.1
		c-11.4,8.8-25.3,6.1-35.9,3.9c-1.1-0.2-4.8-7.4-4.8-7.4s-3.1,7.1-10.6,2c-4.7-3.2-9.1-9.4-8.8-15.9c0.3-6.8,5.6-15.7,22.1-24.6
		c10-5.4,14.8-17.4,14.1-31.4c0.7-4.2,3.8-26.1,5.7-36.1c2.4-12.4,8.1-36.5,18.8-51.3c8.9-12.3,21.8-18.2,44.6-25.7
		c25.3-8.3,40.8-8.8,54.1-10.2C421.1,204.6,425.5,212.6,423.8,226.8z M369.6,248.6c6.3-6.6,8.6-14.8,8.6-14.8s-20.8,4.4-29.3,5.7
		c-14.8,2.3-16.5,6.1-21.7,13.1c-4,5.4-4.5,9.4-2.9,18.2c0.5,2.7,2.3,4,3.9,6.8c1.8,3.3,2.2,9.4,3.3,9.3c1.6-0.2,7.8-6.5,14.6-8.4
		C357.8,275.2,360.6,258.1,369.6,248.6z M341.9,277.3c-5.9,0-10.6-5.4-10.6-12.1c0-6.7,4.9-10.8,10.6-12.1
		c10.6-2.4,9.4,4.5,10.6,12.1C353.6,271.8,347.8,277.3,341.9,277.3z M340.8,268.4c0-0.5-0.4-0.9-0.9-0.9c-0.5,0-0.9,0.4-0.9,0.9
		c0,0.5,0.4,0.9,0.9,0.9C340.4,269.3,340.8,268.9,340.8,268.4z M344.7,268.5c0-0.8-0.5-1.4-1.1-1.4c-0.6,0-1.1,0.6-1.1,1.4
		c0,0.8,0.5,1.4,1.1,1.4C344.3,270,344.7,269.3,344.7,268.5z M344.7,264.3c0-1.7-1.1-3.1-2.5-3.1c-1.4,0-2.5,1.4-2.5,3.1
		c0,1.7,1.1,3.1,2.5,3.1C343.6,267.5,344.7,266.1,344.7,264.3z M69.6,244c-4.6-10.3-6.3-21-4.2-27.9s4.5-10.3,3.3-15.6
		s-20-10.8-27.9-13c-12.8-3.5-24.1-6.1-34.1-6.8c-4.7-0.3-6.1,2.3-3,4.6c4.8,3.7,15.3,11.9,26.8,19.5
		C47.9,216.4,44.6,231.6,69.6,244z M90.9,204.6c13.3,1.4,28.8,1.9,54.1,10.2c22.7,7.5,35.7,13.4,44.6,25.7
		c10.7,14.9,16.4,38.9,18.8,51.3c1.9,10,5,31.9,5.7,36.1c-0.7,14,4.1,26,14.1,31.4c16.6,8.9,21.9,17.8,22.1,24.6
		c0.3,6.4-4.1,12.6-8.8,15.9c-7.5,5.1-10.6-2-10.6-2s-3.7,7.1-4.8,7.4c-10.6,2.2-24.6,4.8-35.9-3.9c10.4-9.2,16.2-15.1,16.2-15.1
		s-10.9,3.9-19,11c-2.8-1.5-14.3-15.6-15.7-19c9.2-5.3,17.6-10.5,17.6-10.5s-11.8,2.3-21.5,5.9c-2.2-1.9-10.8-20.3-11.4-23.4
		c5.8-3,15-7.5,15-7.5s-12.1,1.1-18.5,3.1c-2-7.6-0.9-13.1,0.1-16.2c-1.9-2.7,0.4-15.3-2.4-21.2c-12.9-28.3-21.2-24.2-34.2-34.3
		c-5.9-4.6-10.7-23.4-10.7-23.4s-1.5,0.4-2.1,2.4c-0.6,2-1.5,5.6-1.5,5.6s-12.6-21.2-13.9-31.7C86.5,212.6,90.9,204.6,90.9,204.6z
		 M166,278.5c6.8,1.9,13,8.3,14.6,8.4c1.1,0.1,1.5-6,3.3-9.3c1.6-2.9,3.4-4.2,3.9-6.8c1.6-8.8,1.1-12.8-2.9-18.2
		c-5.2-7-6.9-10.8-21.7-13.1c-8.5-1.3-29.3-5.7-29.3-5.7s2.3,8.2,8.6,14.8C151.4,258.1,154.2,275.2,166,278.5z M159.5,265.2
		c1.2-7.6,0-14.5,10.6-12.1c5.7,1.3,10.6,5.4,10.6,12.1c0,6.7-4.7,12.1-10.6,12.1C164.2,277.3,158.4,271.8,159.5,265.2z
		 M172.1,269.3c0.5,0,0.9-0.4,0.9-0.9c0-0.5-0.4-0.9-0.9-0.9c-0.5,0-0.9,0.4-0.9,0.9C171.2,268.9,171.6,269.3,172.1,269.3z
		 M168.3,270c0.6,0,1.1-0.6,1.1-1.4c0-0.8-0.5-1.4-1.1-1.4c-0.6,0-1.1,0.6-1.1,1.4C167.3,269.3,167.7,270,168.3,270z M169.8,267.5
		c1.4,0,2.5-1.4,2.5-3.1c0-1.7-1.1-3.1-2.5-3.1c-1.4,0-2.5,1.4-2.5,3.1C167.3,266.1,168.4,267.5,169.8,267.5z M288.5,329.3
		c-2.9-4.5-8.5-5.6-16.9-6.2c-7.6-0.6-15.6-0.6-15.6-0.6s-8,0-15.6,0.6c-8.4,0.7-14,1.7-16.9,6.2c-3.3,5.2-4.7,16.2,13.8,28.4
		c0.9,0.6,1.5-2-1.3-4.6c-4.4-4.2-6.7-17.9-3.9-17.2c6.6,1.9,13.8,13.7,10.9,22.6c-0.7,2.3,4.6,6.5,7,7.5c3.8,1.5,6,1.5,6,1.5
		s2.3,0,6-1.5c2.4-0.9,7.8-5.1,7-7.5c-2.8-8.8,4.3-20.7,10.9-22.6c2.7-0.8,0.4,13-3.9,17.2c-2.8,2.7-2.2,5.3-1.3,4.6
		C293.3,345.5,291.8,334.5,288.5,329.3z M500.4,212.2c1.2,12.1-1.2,23.6-3.5,25.3c-0.1-4.1-1.1-7.2-2.4-9.6c-1.8-3.5-4.1-5-4.1-5
		s2.4,10.3-0.3,41.1c-1.8,19.5-13.7,39.2-13.7,39.2s0.3-8-2.8-17.7c-2.6-8.2-8.8-13.6-8.8-13.6s5,17.1,5.7,24.5
		c5.2,55.1-38,84.2-38,84.2s1-6.7-1.3-18.7c-1.8-9.3-8.2-14.6-8.2-14.6c3.2,6.6,5.3,22,0.7,31.7c-4,8.4-9.2,12.1-18,20.8
		c-9.7,9.6-31.6,18.7-31.6,18.7s1.3-12.5-0.5-14.9c0.2,2.5-5.8,17.2-13.1,20.7c-6.7,3.2-16.3,10.4-21,18.6c0.8-8,1.6-15.1,2.8-21.5
		c-9.9,14.1-25.8,35-41.9,45.4c1.2-9.7,3.6-15.3,0-22.2c-2,18-22.3,35.4-22.3,35.4s4.3-19.5,2.3-29.5
		c-14.3,39.3-24.6,46.5-24.6,46.5s-10.2-7.2-24.6-46.5c-2.1,9.9,2.3,29.5,2.3,29.5s-20.3-17.3-22.3-35.4c-3.6,6.9-1.2,12.5,0,22.2
		c-16.1-10.4-32-31.3-41.9-45.4c1.2,6.4,2,13.5,2.8,21.5c-4.6-8.2-14.3-15.4-21-18.6c-7.3-3.5-13.2-18.2-13.1-20.7
		c-1.7,2.4-0.5,14.9-0.5,14.9s-21.9-9.1-31.6-18.7c-8.8-8.7-14-12.4-18-20.8c-4.6-9.7-2.5-25,0.7-31.7c0,0-6.4,5.3-8.2,14.6
		c-2.3,12-1.3,18.7-1.3,18.7s-43.2-29.1-38-84.2c0.7-7.3,5.7-24.5,5.7-24.5s-6.1,5.4-8.8,13.6c-3.1,9.8-2.8,17.7-2.8,17.7
		s-11.9-19.7-13.7-39.2c-2.8-30.8-0.3-41.1-0.3-41.1s-2.3,1.5-4.1,5c-1.2,2.4-2.3,5.5-2.4,9.6c-2.3-1.7-4.8-13.2-3.5-25.3
		c0.9-9.1,3.9-10.8,3.9-10.8s14.4,7.7,21.6,20.8c14.1,25.7,35.7,30.6,41.8,32.6c0.8-5.5-9.7-23.5-7.3-36.3c2-11.1,8.8-11.7,3-22.1
		c-3.5-6.3-18.2-11.3-31.6-14.8c-3.3-0.7-10-2.2-12.1-2.7c-8.3-1.9-13.6-2.2-17.7-7.4c-3.7-4.7-2.8-9.5-2.8-9.5s8.2,3.5,16.7-2
		c11-7.1-2.3-18.9,16.5-35.8c11.6-10.4,26.9-8.2,26.9-8.2s-9.2-6.1-20-5.6c-10,0.5-17.6,2.4-28.4,15.5c5.7-26.4,18.6-35.7,32-42.9
		c12.4-6.6,32.5-8.7,46-7.6c0,0-5.1-6.7-14.1-9.7c-12.3-4-20.4-2.9-26.6-0.7c4.6-8.9,21.2-17,43.9-18.4c26.9-1.7,49.4,7.8,49.4,7.8
		s1.5-4.6-7.5-10c-11.3-6.8-25.8-7.8-31.9-5.7c4-5.1,20.8-13.5,51.3-8.8c18.8,2.9,26.9,6.3,26.9,6.3s-0.3-5.3-4.7-8.8
		c-4.2-3.4-9.6-4.9-14.3-5.7c3-2.2,20.5-4,37.4-5.2c21.4-1.5,46.4-1.6,46.4-1.6s25,0,46.4,1.6c16.9,1.2,34.4,3,37.4,5.2
		c-4.6,0.8-10,2.3-14.3,5.7c-4.5,3.5-4.7,8.8-4.7,8.8s8.1-3.4,26.9-6.3c30.5-4.7,47.3,3.7,51.3,8.8c-6.1-2.1-20.6-1.1-31.9,5.7
		c-9,5.4-7.5,10-7.5,10s22.5-9.4,49.4-7.8c22.7,1.4,39.3,9.6,43.9,18.4c-6.2-2.2-14.3-3.3-26.6,0.7c-9.1,3-14.1,9.7-14.1,9.7
		c13.5-1.1,33.5,0.9,46,7.6c13.4,7.2,26.2,16.5,32,42.9c-10.7-13.1-18.3-15-28.4-15.5c-10.8-0.5-20,5.6-20,5.6s15.2-2.2,26.9,8.2
		c18.8,16.9,5.5,28.7,16.5,35.8c8.5,5.5,16.7,2,16.7,2s1,4.7-2.8,9.5c-4.1,5.2-9.4,5.5-17.7,7.4c-2.1,0.5-8.8,1.9-12.1,2.7
		c-13.5,3.4-28.1,8.5-31.6,14.8c-5.9,10.5,0.9,11,3,22.1c2.3,12.7-8.1,30.7-7.3,36.3c6.1-2,27.7-6.9,41.8-32.6
		c7.2-13,21.6-20.8,21.6-20.8S499.5,203.1,500.4,212.2z M289.6,141.2l0.5,0c2-8.2,3.6-16.3,5.4-24.4c1.9-8,3-16.2,5.5-24
		c2.3-7.8,5.9-15.2,10.5-22.1c4.5-6.8,9.9-13.3,16.2-18.7l-0.3-0.4c-6.8,4.9-12.8,10.9-18,17.6c-5.1,6.7-9.4,14.2-12.4,22.2
		c-3,7.9-5.6,16.1-6.7,24.5C289.1,124.3,288.6,132.7,289.6,141.2z M273.3,258.9l0.5,0.1c3.5-15.5,7.6-30.7,12.5-45.6
		c4.9-14.9,10.1-29.7,17.3-43.6c7.4-13.7,17.1-26.2,28.3-37.3c11.1-11.2,23.4-21.3,36.7-29.7l-0.3-0.5
		c-13.8,7.9-26.6,17.5-38.3,28.3c-11.7,10.9-22.1,23.2-30.2,37.2c-7.9,13.9-14.4,28.7-18.7,44.1c-2.1,7.7-4,15.5-5.3,23.4
		C274.6,243,273.6,251,273.3,258.9z M184.3,52.1c6.3,5.4,11.6,11.9,16.2,18.7c4.6,6.9,8.2,14.2,10.5,22.1c2.5,7.8,3.6,16,5.5,24
		c1.8,8.1,3.4,16.2,5.4,24.4l0.5,0c1-8.4,0.5-16.9-0.6-25.3c-1.1-8.4-3.7-16.5-6.7-24.5c-2.9-8-7.2-15.5-12.4-22.2
		c-5.3-6.6-11.2-12.6-18-17.6L184.3,52.1z M143.3,102.7c13.3,8.5,25.6,18.6,36.7,29.7c11.1,11.1,20.9,23.6,28.3,37.3
		c7.2,13.9,12.5,28.7,17.3,43.6c4.9,14.9,8.9,30.1,12.5,45.6l0.5-0.1c-0.2-8-1.3-15.9-2.6-23.8c-1.3-7.9-3.1-15.7-5.3-23.4
		c-4.3-15.4-10.8-30.2-18.7-44.1c-8.1-13.9-18.5-26.3-30.2-37.2c-11.7-10.8-24.5-20.4-38.3-28.3L143.3,102.7z M85.1,143.7
		c10.1,2.4,20,5.9,29,10.9c9.1,4.9,16.7,11.9,24.4,18.8c7.7,6.9,15,14.4,22.5,21.9l0.4-0.3c-2.5-4.7-5.4-9.2-8.7-13.4
		c-3.2-4.3-6.7-8.3-10.5-12.1c-7.5-7.7-16.5-13.9-26.2-18.6c-9.6-4.8-20-7.9-30.5-9.8c-10.5-1.7-21.2-2.3-31.7-1.2l0.1,0.5
		C64.4,140.1,75,141.4,85.1,143.7z M276.4,425.6c-3.5,1-6.8,1-10.2,1.2c-3.4,0.1-6.8,0.1-10.2,0c0,0,0,0,0,0c0,0,0,0,0,0
		c-3.4,0-6.8,0.1-10.2,0c-3.4-0.2-6.8-0.2-10.2-1.2c1.1,1.5,2.8,2.5,4.4,3.3c1.7,0.8,3.4,1.5,5.2,1.9c3.6,1,7.2,1.3,10.8,1.3
		c0,0,0,0,0,0c0,0,0,0,0,0c3.6,0,7.2-0.4,10.8-1.3c1.8-0.4,3.5-1.1,5.2-1.9C273.6,428.1,275.3,427.1,276.4,425.6z M426.4,198.4
		c-15.3,0.2-23.7,1.1-39.6,4c-23.6,4.4-33,8.7-50.5,16.6c-16.5,7.4-27.3,20.7-32.2,40.1c-0.9,3.4-1.8,7.3-2.6,11.4
		c0,0.1,0,0.2-0.1,0.2c-0.2,0.9-0.4,1.7-0.6,2.6c0,0.2-0.1,0.4-0.1,0.6c-0.2,0.8-0.4,1.6-0.5,2.5c0,0.2-0.1,0.3-0.1,0.5
		c-0.2,1-0.4,2-0.6,3c0,0.1,0,0.2-0.1,0.4c-0.2,0.9-0.4,1.8-0.6,2.7c-4,19.7-7.5,39.7-7.5,39.7s-1.7-2.1-4.6-3
		c2.7-18.5-0.6-32.6-0.6-32.6s-2.4,28.8-4.2,31.5c-3.3-0.6-5-0.4-8.2-0.6c-3.6-0.2-5.9-0.2-9-0.4c0.4-4.4-1.3-7.8-1.3-7.8
		s-1.4,7.7-2,7.7c-2.7,0.1-5.5-0.1-5.5-0.1l0,0c0,0-2.9,0.1-5.5,0.1c-0.6,0-2-7.7-2-7.7s-1.8,3.3-1.3,7.8c-3.1,0.2-5.4,0.2-9,0.4
		c-3.1,0.2-4.9,0-8.2,0.6c-1.8-2.7-4.2-31.5-4.2-31.5s-3.3,14.1-0.6,32.6c-2.8,1-4.6,3-4.6,3s-3.5-20-7.5-39.7
		c-0.2-0.9-0.4-1.8-0.6-2.7c0-0.1-0.1-0.2-0.1-0.4c-0.2-1-0.4-2-0.6-3c0-0.2-0.1-0.3-0.1-0.5c-0.2-0.8-0.4-1.7-0.5-2.5
		c0-0.2-0.1-0.4-0.1-0.6c-0.2-0.9-0.4-1.8-0.6-2.6c0-0.1,0-0.2-0.1-0.2c-0.9-4.1-1.8-7.9-2.6-11.4c-4.9-19.4-15.6-32.7-32.2-40.1
		c-17.5-7.9-26.9-12.2-50.5-16.6c-16-2.9-24.3-3.8-39.6-4c-8.4,21.1-3.9,41.3,9.9,62c5.9,8.8,7.8,17.2,15.3,25.5
		c1.5,1.6,15.1,5.7,17.9,8.2c2.7,2.4,17.2,37.4,16.1,48.7c0.4,1.5,0.8,3.2,1.3,4.9c-3.7,1.1-11.2,3.2-18.6,5.7
		c-17.8,6-35,14.5-34.2,14.7c0,0,20.9-5.8,33.2-9.7c9.5-2.9,17.1-4.6,21.2-5.4c2.4,7.6,5.6,16.1,9.7,24.1c-1.8,0.7-4,1.6-6.7,2.9
		c-12.1,5.3-29.3,17.1-29.3,17.1s14.2-5.6,31-11.5c3.3-1.1,6-2,8.3-2.7c2,3.4,4.2,6.5,6.7,9.3c2.4,2.7,5.8,7.1,10.7,11.9
		c-1.4,0.9-2.8,1.8-3.8,2.6c-3.9,3-15.9,14.4-15.9,14.4s12.2-6.6,16.8-9.5c2.3-1.4,4.6-2.9,6.5-4.1c5.3,4.6,12.1,9.3,20.8,13.1
		c11.1,4.8,18.9-3.3,28.9-7.1c10.4-4,18.5-7,18.5-7l6.4-0.7l6.3,0.7c0,0,8.1,3,18.5,7c10,3.8,17.8,11.9,28.9,7.1
		c8.7-3.8,15.5-8.5,20.8-13.1c1.9,1.3,4.2,2.7,6.5,4.1c4.6,2.8,16.8,9.5,16.8,9.5s-12-11.3-15.9-14.4c-1-0.7-2.4-1.7-3.8-2.6
		c4.9-4.8,8.3-9.2,10.7-11.9c2.4-2.8,4.6-6,6.7-9.3c2.3,0.7,5,1.6,8.3,2.7c16.8,5.8,31,11.5,31,11.5s-17.3-11.8-29.3-17.1
		c-2.8-1.2-5-2.1-6.8-2.9c4.1-8,7.3-16.5,9.7-24.1c4.1,0.8,11.7,2.5,21.2,5.4c12.4,3.8,33.2,9.7,33.2,9.7
		c0.8-0.2-16.4-8.7-34.2-14.7c-7.4-2.5-14.9-4.7-18.6-5.7c0.5-1.7,0.9-3.4,1.3-4.9c-1.2-11.3,13.4-46.3,16.1-48.7
		c2.7-2.5,16.4-6.5,17.9-8.2c7.5-8.4,9.4-16.7,15.3-25.5C430.3,239.6,434.8,219.5,426.4,198.4z M458,140.5l0.1-0.5
		c-10.5-1.1-21.2-0.5-31.7,1.2c-10.5,1.9-20.8,5-30.5,9.8c-9.7,4.7-18.7,11-26.2,18.6c-3.8,3.8-7.3,7.8-10.5,12.1
		c-3.2,4.2-6.2,8.7-8.7,13.4l0.4,0.3c7.4-7.6,14.7-15,22.5-21.9c7.7-6.9,15.4-13.9,24.4-18.8c9-5.1,18.9-8.6,29-10.9
		C437,141.4,447.6,140.1,458,140.5z"/>
</g>
</svg>
